<svg xmlns="http://www.w3.org/2000/svg" viewBox="0 0 15.85 14.1"><defs><style>.cls-1{fill:#d9b226;}</style></defs><title>Asset 3</title><g id="Layer_2" data-name="Layer 2"><g id="Layer_1-2" data-name="Layer 1"><path class="cls-1" d="M15.85,4.76a5.94,5.94,0,0,1-1.57,3.87,34.64,34.64,0,0,1-3.93,3.69c-.55.47-1.17,1-1.81,1.55a.94.94,0,0,1-1.23,0l-1.8-1.55A34,34,0,0,1,1.57,8.63,5.94,5.94,0,0,1,0,4.76,5,5,0,0,1,1.26,1.38,4.25,4.25,0,0,1,4.43,0,4,4,0,0,1,6.92.86a5.32,5.32,0,0,1,1,1,5,5,0,0,1,1-1A4,4,0,0,1,11.43,0,4.27,4.27,0,0,1,14.6,1.38,5,5,0,0,1,15.85,4.76Z"/><path class="cls-1" d="M14.6,1.38A4.27,4.27,0,0,0,11.43,0a4,4,0,0,0-2.5.86,5,5,0,0,0-1,1,5.32,5.32,0,0,0-1-1A4,4,0,0,0,4.43,0,4.25,4.25,0,0,0,1.26,1.38,5,5,0,0,0,0,4.76,5.94,5.94,0,0,0,1.57,8.63a34,34,0,0,0,3.94,3.69l1.8,1.55a.94.94,0,0,0,1.23,0c.64-.56,1.26-1.08,1.81-1.55a34.64,34.64,0,0,0,3.93-3.69,5.94,5.94,0,0,0,1.57-3.87A5,5,0,0,0,14.6,1.38ZM13.57,8a32.2,32.2,0,0,1-3.83,3.58c-.54.47-1.17,1-1.81,1.57-.65-.57-1.27-1.1-1.82-1.56h0A32.81,32.81,0,0,1,2.29,8,5,5,0,0,1,.93,4.76,4,4,0,0,1,1.94,2,3.34,3.34,0,0,1,4.43.93a3.08,3.08,0,0,1,1.92.66A4.55,4.55,0,0,1,7.42,2.83a.6.6,0,0,0,.51.29.58.58,0,0,0,.5-.29A4.74,4.74,0,0,1,9.5,1.59,3.09,3.09,0,0,1,11.43.93,3.31,3.31,0,0,1,13.91,2a4,4,0,0,1,1,2.75A5,5,0,0,1,13.57,8Z"/></g></g></svg>