<svg xmlns="http://www.w3.org/2000/svg" viewBox="0 0 22.64 14.43"><defs><style>.cls-1{fill:#d9b226;}</style></defs><title>Asset 4</title><g id="Layer_2" data-name="Layer 2"><g id="Layer_1-2" data-name="Layer 1"><path class="cls-1" d="M11.32,2.74A4.48,4.48,0,1,0,15.8,7.21,4.48,4.48,0,0,0,11.32,2.74Zm0,7.92A3.91,3.91,0,0,1,7.87,7.15a3.77,3.77,0,0,1,3.45-3.38,3.85,3.85,0,0,1,3.45,3.44A3.85,3.85,0,0,1,11.32,10.66Z"/><path class="cls-1" d="M22.49,6.77C22.29,6.5,17.47,0,11.32,0S.35,6.5.14,6.77a.75.75,0,0,0,0,.88c.21.28,5,6.78,11.18,6.78s11-6.5,11.17-6.78A.72.72,0,0,0,22.49,6.77ZM11.32,13.32c-4.53,0-9.1-4.7-10.26-6.11C2.22,5.8,6.78,1,11.32,1S20.41,5.8,21.58,7.21C20.42,8.63,15.86,13.32,11.32,13.32Z"/><circle class="cls-1" cx="11.69" cy="7.05" r="3.82"/></g></g></svg>