<svg xmlns="http://www.w3.org/2000/svg" viewBox="0 0 82.57 74.64"><defs><style>.cls-1{fill:#d9b226;}</style></defs><title>Asset 1</title><g id="Layer_2" data-name="Layer 2"><g id="Layer_1-2" data-name="Layer 1"><path d="M72,36.17a2.61,2.61,0,0,0-2.61,2.62V69.41H5.23V5.23H56.79a2.62,2.62,0,0,0,0-5.23H2.61A2.61,2.61,0,0,0,0,2.61V72a2.61,2.61,0,0,0,2.61,2.62H72A2.62,2.62,0,0,0,74.64,72V38.79A2.62,2.62,0,0,0,72,36.17Z"/><path class="cls-1" d="M81.81,1.72a2.62,2.62,0,0,0-3.7,0L35.54,44.29,25,33.72a2.61,2.61,0,0,0-3.69,3.69L33.69,49.84a2.63,2.63,0,0,0,3.7,0L81.81,5.42A2.62,2.62,0,0,0,81.81,1.72Z"/></g></g></svg>