<svg xmlns="http://www.w3.org/2000/svg" viewBox="0 0 27.81 24.75"><title>Asset 2</title><g id="Layer_2" data-name="Layer 2"><g id="Layer_1-2" data-name="Layer 1"><path d="M13.91,24.75a1.65,1.65,0,0,1-1.08-.41c-1.12-1-2.21-1.9-3.16-2.72h0a58.9,58.9,0,0,1-6.9-6.48A10.4,10.4,0,0,1,0,8.36,8.65,8.65,0,0,1,2.21,2.42,7.47,7.47,0,0,1,7.77,0a7,7,0,0,1,4.37,1.51,8.87,8.87,0,0,1,1.77,1.84,8.83,8.83,0,0,1,1.76-1.84A7,7,0,0,1,20,0a7.49,7.49,0,0,1,5.57,2.42,8.69,8.69,0,0,1,2.2,5.94,10.38,10.38,0,0,1-2.75,6.78,59.9,59.9,0,0,1-6.91,6.48c-1,.81-2,1.74-3.17,2.72A1.64,1.64,0,0,1,13.91,24.75ZM7.77,1.63A5.85,5.85,0,0,0,3.4,3.53,7.07,7.07,0,0,0,1.63,8.36,8.7,8.7,0,0,0,4,14.1a59.2,59.2,0,0,0,6.71,6.28h0c1,.82,2,1.75,3.17,2.74,1.14-1,2.23-1.92,3.19-2.74A57.53,57.53,0,0,0,23.8,14.1a8.7,8.7,0,0,0,2.38-5.74,7.07,7.07,0,0,0-1.77-4.83A5.85,5.85,0,0,0,20,1.63,5.37,5.37,0,0,0,16.67,2.8,8,8,0,0,0,14.79,5,1,1,0,0,1,13,5,7.7,7.7,0,0,0,11.14,2.8,5.35,5.35,0,0,0,7.77,1.63Z"/></g></g></svg>