<svg xmlns="http://www.w3.org/2000/svg" viewBox="0 0 1325 335.68"><defs><style>.cls-1{fill:#debc41;}.cls-2{fill:#6d6e70;}</style></defs><title>Asset 1</title><g id="Layer_2" data-name="Layer 2"><g id="Layer_1-2" data-name="Layer 1"><path d="M289.6,335.68H0V46.08H289.6ZM24.26,311.41H265.34V70.34H24.26Z"/><path d="M402.3,86.7H411v74.43L496.77,86.7H507.6l-92.84,80.93L531.42,289.71H519.51L411.24,176.83V289.71H402.3Z"/><path d="M539.77,293.28H518l-1-1.1L414.8,185.71V293.28H398.73V83.13h15.8v70.19l80.91-70.19h21.68l-97.21,84.74ZM521,286.14h2L409.59,167.4l82.75-72.14-84.28,73.11Zm-115.16,0h1.8V168.72l-.27.23V90.27h-1.53Z"/><path d="M719.83,86.7h7.85v206L578.26,108.89V289.71h-7.85v-206L719.83,267.24Z"/><path d="M731.25,302.73,581.83,118.94V293.28h-15V73.68L716.27,257.21V83.13h15ZM574,286.14h.72V98.85L724.12,282.64V90.27h-.72v187L574,93.75Z"/><path d="M870.62,81.82,972.13,289.71h-9.47l-38.44-77.42H815.67l-37.89,77.42h-8.4Zm-.81,18.68L819.19,204.44H921Z"/><path d="M977.84,293.28h-17.4L922,215.86H817.9L780,293.28H763.68L870.62,73.68Zm-13-7.14h1.55L870.63,90,775.09,286.14h.46l37.9-77.41h113ZM926.7,208H813.49l56.3-115.62Zm-101.8-7.13h90.34l-45.41-92.26Z"/><path d="M1092.27,292.69h-3a98.36,98.36,0,0,1-52-14.62,107.43,107.43,0,0,1-38-38.84,101.8,101.8,0,0,1-13.94-51.57q0-43,31.13-74t74.44-31a107.42,107.42,0,0,1,54.95,15.16v10q-25.44-17.32-54.95-17.33-39.79,0-68.21,28.56t-28.42,68.49q0,39.93,28.42,68.62t68.21,28.69q29.5,0,54.95-17.32v10A100.32,100.32,0,0,1,1092.27,292.69Z"/><path d="M1092.27,296.26h-3a102.46,102.46,0,0,1-53.83-15.14A111.55,111.55,0,0,1,996.19,241a105.79,105.79,0,0,1-14.41-53.35c0-29.54,10.82-55.3,32.18-76.56s47.24-32,77-32a111.44,111.44,0,0,1,56.75,15.64l1.77,1v18.81l-5.58-3.79c-16.28-11.09-34.1-16.71-52.94-16.71-25.41,0-47.51,9.26-65.68,27.51s-27.38,40.45-27.38,66,9.21,47.76,27.38,66.11,40.26,27.63,65.68,27.63c18.85,0,36.66-5.62,52.94-16.7l5.58-3.8v18.75l-1.7,1.05A104.35,104.35,0,0,1,1092.27,296.26ZM1090.91,86.2c-27.76,0-52,10.08-71.92,30s-30.08,43.93-30.08,71.5a98.64,98.64,0,0,0,13.47,49.79A104.29,104.29,0,0,0,1039.17,275a95.3,95.3,0,0,0,50.12,14.1h3a97.2,97.2,0,0,0,50-13.61V274a98.74,98.74,0,0,1-51.38,14.38c-27.39,0-51.19-10-70.75-29.75S990.71,215,990.71,187.53s9.91-51.36,29.46-71,43.36-29.61,70.74-29.61a98.74,98.74,0,0,1,51.38,14.38V99.86A104.09,104.09,0,0,0,1090.91,86.2Z"/><path d="M1187.54,86.7h8.66v74.43L1282,86.7h10.82L1200,167.63l116.66,122.08h-11.91L1196.47,176.83V289.71h-8.93Z"/><path d="M1325,293.28h-21.78l-1-1.1L1200,185.71V293.28H1184V83.13h15.8v70.19l80.9-70.19h21.69l-97.21,84.74Zm-18.73-7.14h2L1194.83,167.4l82.42-71.85-84,72.83Zm-115.16,0h1.79V168.72l-.27.23V90.27h-1.52Z"/><path class="cls-1" d="M44,273c.25-.42.54-.84.8-1.25a8.21,8.21,0,0,1-.45,3.63,61.83,61.83,0,0,0,4.13-10.78c.58-1.87,1.09-3.78,1.53-5.71s.76-3.91,1.16-5.82.68-3.85.93-5.77.42-3.81.62-5.65a90.56,90.56,0,0,0,.47-10.4c1.7-3.92,1.86-7.95.32-9s-4.21,1.31-6,5.38A25,25,0,0,1,45.89,230,67,67,0,0,0,39,239a116,116,0,0,0-6,11.44l3-4.61a34.52,34.52,0,0,0-3,7.5c.39-.21.81-.51,1.21-.73-4.54,8.07-6,20.72-3.2,27.37s7.73,4.77,11.19-3.36Z"/><path class="cls-1" d="M57.47,260.1c-1.15,2.21-2.29,4.37-3.41,6.52s-2.12,4.38-3.19,6.59l-.77.82,2.82.16-.16-.12a26.81,26.81,0,0,1-1-8.68,96.14,96.14,0,0,1,1-10.12l.26-2.4a3.28,3.28,0,0,0-.86-2.48c-1.14-.91-2.94.78-4,3.79L47,257.72C43,266,40.88,280.59,45.14,286.07c1,1.23,2.47.39,3.77.29,1.81.51,3.8-2.58,4.46-6.85s.1-8.15-1.7-8.8c.25-.71.52-1.44.77-2.14.12.61.23,1.23.35,1.85a6.48,6.48,0,0,1-1.06-3.72c0-1.57,0-3.33,0-4.88l.58-4.46-4.81,1.45,0,2.44c.22-.13.57-.41.58-.38.06,4.63.52,9,.44,14,.09,1.06.15,2.1.27,3.15l.41,3.17c.62,1.76,1.86,1.74,2.82.06l1.26-2.54-.7,1.13c1.9-5.95,3.56-12.23,6-17.78a3.41,3.41,0,0,0,.2-2.62C58.46,258.91,57.88,259.19,57.47,260.1Z"/><path class="cls-1" d="M54,281.37a8.13,8.13,0,0,0-1,3.28l.28.64c.26-.5.61-1.17,1-1.84C55,282.13,54.65,281.37,54,281.37Z"/><path class="cls-1" d="M53.31,285.29l-.41.77.47-.49v-.17Z"/><path class="cls-1" d="M182.08,71.4c7.57-5.24,15.45-10.24,23.48-14.93s16-8.84,23.87-12.74c.53-.26.88-.67.77-.93s-.6-.22-1.08,0c-7.89,3.9-15.89,8.1-23.91,12.71s-15.94,9.68-23.54,14.93c-.5.37-.78.84-.7,1.09S181.6,71.72,182.08,71.4Z"/><path class="cls-1" d="M309.11,34.51c-.34.31-.24.58.23.64a1.93,1.93,0,0,0,1.36-.43c.28-.26.18-.58-.22-.63A1.87,1.87,0,0,0,309.11,34.51Z"/><path class="cls-1" d="M312.32,55.65a25.93,25.93,0,0,0-5,3.46,1.69,1.69,0,0,1-.94.34c.28.36,0,.88-.6,1.33-6.33,4.41-13,8.92-20.11,13.54l-10.88,7c-3.64,2.31-7.24,4.61-10.75,6.93a2.18,2.18,0,0,1-.17,1.22c-.54,1.5-2.34,3-4.53,4l-1.71.59c-6.68,2.8-13.09,5.82-19.37,8.84a19,19,0,0,1-3.59,3.34c-4.24,4.35-8.37,8.7-12.59,13.12a1.37,1.37,0,0,1,1.11.49c.47.82-.23,2.18-1.52,3.15l-1.9,1.54c2-1.26,4-2.5,6-3.64a4.12,4.12,0,0,1,.84-.42c2-1.5,4.16-2.93,6.23-4.5,9-6.66,18.27-13.17,27.91-19.9L275.38,85.8c4.92-3.45,10-7,14.7-10.45a1.57,1.57,0,0,1,1.22-.47c.3.1.39.4.07.69-5.48,5.22-10.77,10.87-16,16.26a211,211,0,0,1-16.75,15.79q-5.45,4.53-10.43,9c-3.33,3-6.41,6-9.5,9-6.16,6.09-12.13,12.45-18.1,19.14-14.12,12.2-24.88,26.75-36.6,43.22-7.81,11.08-15,21.64-21.5,32.07a268.78,268.78,0,0,0-17,31.13,22.31,22.31,0,0,1-2.73,5.51,20.66,20.66,0,0,1-3.53,4.24c-2.68,2.32-5.47,3.63-8.28,3.27a6.68,6.68,0,0,1-4.24-2.38,10.16,10.16,0,0,1-2.22-5.25c-.29.69-.62,1.37-.86,2.06l-1.76,3.11a22.66,22.66,0,0,1-2.86,3.88,12.2,12.2,0,0,1-3.25,2.6l-2.93,1.8a41.19,41.19,0,0,0-7.51,4.42c-1.25.84-2.51,1.68-3.77,2.44a25,25,0,0,1-3.71,2l-1.58-1-.62.6a9.14,9.14,0,0,1-5.41,3.64l-2-.57a13.39,13.39,0,0,1-6-4.84,4.09,4.09,0,0,1-2.42-1.17c-2.42,1.33-4.79,1.82-7,0-.8,1-1.67.64-2-.76a5.71,5.71,0,0,1,0-1.61h0a14.36,14.36,0,0,0-1.58,1.36c-.37,1.07-.62,1.68-.62,1.68-.86,2.87-.94,2.86-1.63,5.37a14.33,14.33,0,0,1-2.18,3.37c-4,2-4,2.09-5.58,1.51a4.56,4.56,0,0,1-.4-.55c-.78,2-.84,2.13-1.07,2.67a5.65,5.65,0,0,1-.73.92c-.88,0-.88,0-1.23.34a1.84,1.84,0,0,1-.67,0c-.82-1.25-.82-1.25-1.09-1.31a3.76,3.76,0,0,1-.4-.7c-.13-1.41-.18-2-.2-2.2L56,282.89l-.69-.74,1.1-.54-1,.26.75-1.4-1,1.58c.75-3.46.77-3.45,1-4.84a12.91,12.91,0,0,0,.36-2.84,1.58,1.58,0,0,1-.52,0c1-3.63,1-3.65,2.1-7.15a8,8,0,0,1,.8-.7,2.63,2.63,0,0,1,.07-1.78L59.5,263c0-.15,0-.29,0-.42l-.07,0c0-.67,0-1.13-.06-1.67l0-.35h0c0-1.16-.16-2.84-.08-7.24.42-1.06.86-2,1.31-2.93-.22.27-.44.52-.67.77-.46.49-1.1-.27-1.27,0-1,1.81-1.93,3.69-2.79,5.63s-1.57,4-2.32,6.06c-1.58,4.09-2.66,8.45-3.91,12.75-.2,1.58-.9,3-1.58,3.14s-1.21-1.14-1-2.77a70.92,70.92,0,0,1,.34-14.59c.32-2.48.68-5,1.21-7.49s1.22-4.93,1.94-7.38A67.1,67.1,0,0,1,53,239.27c1-2.33,1.91-4.66,3-6.89S58.29,228,59.48,226c.61-1,1.2-2.07,1.83-3.06s1.3-1.93,2-2.87l3.45-6.25,3.61-6.11-.68.42,2.2-3,.2-.34-2.59,1.8-1.25,1.53c-2.77,4.74-5.54,9.33-8.47,13.82-1.42,2.28-2.79,4.61-4.19,6.94-.69,1.18-1.39,2.35-2.07,3.55l-1.91,3.71c-1.33,2.71-2.84,5.13-4.19,7.63s-2.72,5-4,7.62c-.51,1.4-1.27,2.29-1.83,2s-.58-1.79-.11-3.18a120.45,120.45,0,0,1,4-14.41c.84-2.36,1.65-4.78,2.65-7s2-4.53,3.09-6.72,2.24-4.27,3.45-6.28,2.45-4,3.71-5.79a72,72,0,0,1,8.17-9.46,28.28,28.28,0,0,1,5.56-7.37l.08-.12-2.08,1.17c1.45-2,3-2.67,4.52-4.35l-1.92-.15c6.89-10,13.6-21,21.93-28.43.28-.33.57-.63.85-.92a56.86,56.86,0,0,1,6.81-13.46l-3.79,4.11c.91-1.82,1.86-3.63,2.93-5.36A51.21,51.21,0,0,1,105,140.5c7.32-9,17.65-16.89,25-18.32a458.65,458.65,0,0,1,47.18-48c.88-.8,2-1.15,2.44-.88s.1,1.19-.79,2c-11.71,11.58-23,23.29-33.58,35.37,5-4.5,10.1-8.91,15.29-13.32s10.55-8.75,16-13.15l4-3.55A26.81,26.81,0,0,1,185,77.54c7.1-5.48,14.35-10.49,21.79-15.35S221.62,52.8,229.12,48L265,25.66A230.35,230.35,0,0,1,293.8,10a138.27,138.27,0,0,1,17-6.17A111.76,111.76,0,0,1,330.41.13a16.43,16.43,0,0,1,5.07.14c1.41.31,2.42.88,2.66,1.52.47,1.3-2.18,2.52-5.74,3a124.44,124.44,0,0,0-19.81,4.7,164.36,164.36,0,0,0-17.48,6.88,335.61,335.61,0,0,0-29.77,16l-13.55,7.89-13.95,8c-9.46,5.39-19.23,11-29.2,17.16-4.3,2.67-8.47,5.41-12.55,8.2a1.3,1.3,0,0,1,.41.36,2.47,2.47,0,0,1,.11,2.29c4.63-3.08,9.43-6,14.39-8.72,12.39-9.62,25.34-18.07,39.73-24.36,5-2.15,9.68-3.88,14.46-5.51s9.62-3.14,14.64-4.63c11.59-6.14,24.15-12.33,38.91-16.08a1.72,1.72,0,0,1,1.49,0c.26.21,0,.51-.6.72a210.77,210.77,0,0,0-27.52,12.57c1.72.2,2.94.86,3.25,2s-.36,2.59-1.7,3.95c2-.75,4-1.55,6-2.24,1.27-.42,2.4-.34,2.57.24s-.64,1.42-1.82,1.83c-8.17,2.93-15.93,6.37-23.52,9.87L251,60.54a6.52,6.52,0,0,1,3.87,1.27v0l4.07-2.14c5.91-3.86,11.84-7.61,18-11.29a209,209,0,0,1,19.3-10.29,125.64,125.64,0,0,1,21.41-7.76,90.26,90.26,0,0,1,23.56-2.87c.63,0,1.15.2,1.15.48s-.47.52-1,.51a87,87,0,0,0-14.29,1,107.57,107.57,0,0,0-13.66,3.13h0c.4.06.55.35.21.64a2.26,2.26,0,0,1-1.38.41c-.46-.07-.51-.37-.22-.64-16.42,5.23-30.63,13.62-44,22,13-6.7,26.42-13.48,41.06-17.62,1.49-.8,3-1.63,4.52-2.42a1.55,1.55,0,0,1,1.31,0c.18.18-.07.54-.52.72s-.85.4-1.27.63c2.81-.67,5.25-.08,5.53,1.32s-1.85,3.13-4.62,3.88A224.3,224.3,0,0,0,292.58,50l-2.17,1.24c-.67.54-1.33,1.09-2,1.66,11-4.42,22.34-8.12,33.71-9.88,1-.22,1.86,0,2,.5s-.55,1.09-1.5,1.3a183.44,183.44,0,0,0-27.67,12.25c-9.06,4.77-18.24,10.05-27.53,15.12q-7.85,7.57-15.4,15.29l2.34-1.16a238.32,238.32,0,0,0,27.42-17.4c8.61-6.09,17-12.17,26.74-16.35a.93.93,0,0,1,1.12,0c.14.22-.12.57-.62.77-9.39,4.28-17.15,10.28-26.05,16.26-7.42,5-14.6,9.81-21,15,7.23-4,14.37-8.42,21.37-12.85a231.58,231.58,0,0,1,20.81-12.18,2.74,2.74,0,0,1,1.79-.41.59.59,0,0,1,.23-.48,34.08,34.08,0,0,1,5.3-3.67,1.18,1.18,0,0,1,1.18-.11C312.87,55,312.71,55.37,312.32,55.65ZM78.15,229.59l-.47.3,1.13-1.26,2.81-1.21Zm-1.94,28.72v0l-1.47.9Zm80.17-155.07c-6.94,6.68-13.83,13.17-21.11,19.28l4.42-5.32Q147.71,110,156.38,103.24ZM64.08,244.87a30.08,30.08,0,0,1,5.72-5,23,23,0,0,1,1.6-5c1-2.22,1.92-4.42,2.94-6.55s2.17-4.16,3.28-6.18c-.91.24-.38-.73-.23-1.28l.54-1.67c-2.45,4.3-5.1,8.54-7.46,13.1-1.08,2.05-2.23,4.17-3.24,6.35S65.18,242.9,64.08,244.87Zm-5.45,35.21-.31.39-1-1.1Zm1.66,1.74c.08-.22.15-.45.24-.7C60.9,281.44,60.72,281.65,60.29,281.82Zm2.38-6.32a4.32,4.32,0,0,0-.74.82Zm32.41,1.61c-1.66-1.05-3.34-2.13-4.94-3.22,1.51,1.14,3.12,2.27,4.7,3.36Z"/><path class="cls-2" d="M139.46,293.23l.4-.41a2.15,2.15,0,0,1-.26,1.3c3.39-4.47,4.43-10.81,4.3-15.67.75-1.34.77-2.85,0-3.41s-2,.11-2.78,1.5a7.07,7.07,0,0,1-.75.78,19.87,19.87,0,0,0-3.24,2.81,31.63,31.63,0,0,0-2.91,3.86l1.45-1.52a10.83,10.83,0,0,0-1.47,2.61l.6-.18c-2.25,2.7-3.14,7.39-1.88,10s3.74,2.22,5.59-.52Z"/><path class="cls-2" d="M146.12,289.5c-1.12,1.41-2.23,2.79-3.29,4.27l-.39.24,1.39.25-.08-.05c-.76-1.83-.43-4.47.06-6.85l.12-.87a1.29,1.29,0,0,0-.43-1c-.55-.44-1.42,0-1.94,1.07l-.54,1.23c-1.9,2.75-3.2,8-1.2,10.24.46.51,1.21.29,1.86.33.88.3,1.92-.69,2.31-2.17s.13-2.93-.75-3.3c.14-.23.27-.48.41-.71l.15.69c-.68-.65-.44-2.07-.5-3.21l.3-1.59-2.35.16v.9c.11,0,.28-.11.29-.09,0,1.71.2,3.35.11,5.14,0,.77.14,1.56.25,2.33.27.68.89.75,1.39.21l.66-.83-.36.36a59.76,59.76,0,0,1,3.07-6,.91.91,0,0,0,.1-.94C146.61,289.15,146.33,289.2,146.12,289.5Z"/><path class="cls-2" d="M144.3,296.92a2.09,2.09,0,0,0-.55,1.1l.12.25.51-.6C144.74,297.25,144.6,297,144.3,296.92Z"/><path class="cls-2" d="M143.87,298.27l-.21.25.24-.15v-.06Z"/><path class="cls-2" d="M194.31,227.51c2.85-1.52,5.81-3,8.79-4.3s5.89-2.47,8.71-3.52c.19-.07.31-.23.26-.36s-.23-.16-.4-.09c-2.83,1-5.75,2.2-8.73,3.51s-6,2.78-8.82,4.3c-.18.12-.28.29-.24.42S194.13,227.61,194.31,227.51Z"/><path class="cls-2" d="M240.27,222.86a.18.18,0,0,0,.08.33.44.44,0,0,0,.47-.1.2.2,0,0,0-.08-.33A.48.48,0,0,0,240.27,222.86Z"/><path class="cls-2" d="M241.46,233.41a6.28,6.28,0,0,0-1.61,1.22.36.36,0,0,1-.31.08.46.46,0,0,1-.18.58c-2,1.52-4.23,3-6.62,4.44s-5,2.9-7.35,4.34a1.2,1.2,0,0,1,0,.56,2,2,0,0,1-1.48,1.38l-.59.1c-2.28.6-4.44,1.29-6.57,1.94a3.91,3.91,0,0,1-1.15,1.1c-1.34,1.46-2.63,2.9-4,4.32a.78.78,0,0,1,.43.35.91.91,0,0,1-.4,1.19l-.63.43c.68-.3,1.35-.59,2-.83a.6.6,0,0,1,.29-.08c.68-.4,1.36-.78,2-1.22,2.9-1.85,5.89-3.8,9.1-5.92l4.89-3.29c1.67-1.12,3.4-2.32,5-3.44a.34.34,0,0,1,.41-.1.21.21,0,0,1,0,.33c-1.77,1.91-3.56,4.05-5.28,6.05a50.54,50.54,0,0,1-5.42,5.61c-2.34,2-4.33,3.9-6.15,5.78s-3.66,3.88-5.51,5.91c-4.61,3.29-8.08,7.79-12,12.82-5.18,6.74-9.68,12.51-12.88,18.18a4.12,4.12,0,0,1-2.39,2.36,5.68,5.68,0,0,1-3.72.08,5,5,0,0,1-3.3-3.16c-.11.2-.23.39-.33.58l-.72.82a4.71,4.71,0,0,1-2.72,1.44l-1.36.3c-2.38.17-4.73,1.24-7.16,1.51l-.77-.44-.3.14a4.46,4.46,0,0,1-2.65.78l-1-.33a8,8,0,0,1-3-2.07,3,3,0,0,1-1.18-.58,4,4,0,0,1-3.42-.54c-.4.28-.82.1-1-.41a1.5,1.5,0,0,1,0-.56h0a6.51,6.51,0,0,0-.78.36l-.32.54c-.44.94-.47.93-.84,1.76a4.84,4.84,0,0,1-1.12,1c-2,.45-2,.48-2.78.17a2,2,0,0,1-.19-.22c-.42.66-.45.71-.57.88a2.1,2.1,0,0,1-.38.28c-.43,0-.43,0-.61.05a1.17,1.17,0,0,1-.33,0c-.39-.5-.39-.5-.52-.53a1.82,1.82,0,0,1-.19-.28c0-.51-.05-.71-.06-.8l1.32-.79-.33-.3.56-.13-.5,0,.4-.45-.54.5a13.66,13.66,0,0,0,.56-1.66,3.36,3.36,0,0,0,.2-1,.81.81,0,0,1-.26,0c.53-1.23.52-1.24,1.08-2.41a3.44,3.44,0,0,1,.39-.19.73.73,0,0,1,0-.64l.29-.61,0-.16h0c0-.24,0-.41,0-.61l0-.13h0c0-.42-.07-1-.06-2.64a10.63,10.63,0,0,1,.62-1l-.32.22c-.22.14-.53-.19-.61-.1a33.88,33.88,0,0,0-4.48,8.21c-.1.56-.47,1-.81,1s-.57-.49-.45-1.08a23.27,23.27,0,0,1,1.81-10.57,27.26,27.26,0,0,1,5.78-8.79c1-1.37,2-2.72,3-4l-.31.09.95-.93.09-.11-1.16.43-.54.46c-2.3,3.12-5.05,5.75-7.4,9.08-1.27,1.77-2.64,3.25-3.89,5-.24.49-.62.76-.89.59s-.28-.71,0-1.2c2-6.9,6.26-13.75,11.27-16.63a7.2,7.2,0,0,1,2.37-2.3l0,0-.92.24c.61-.65,1.31-.73,1.94-1.23l-.87-.26c2.88-3.21,5.51-6.87,8.92-8.91l.35-.28a14.75,14.75,0,0,1,2.49-4.68l-1.5,1.24a12.93,12.93,0,0,1,2.46-3.51c2.84-2.85,6.92-4.92,10-4.66a169,169,0,0,1,17.64-15.29.78.78,0,0,1,.94-.13c.18.19.08.54-.25.8-4.3,3.87-8.48,7.66-12.4,11.55,3.79-2.66,7.73-5.2,11.77-7.86l1.49-1.12a6.89,6.89,0,0,1,1.62-.89c5.24-3.33,10.83-6,16.14-8.9l6.39-3.52,6.13-3.47a70,70,0,0,1,10.44-5,45.31,45.31,0,0,1,6.42-1.82,39.31,39.31,0,0,1,7.49-.73c1.43-.07,2.75.47,2.87,1.16s-.93,1.17-2.28,1.24a48.8,48.8,0,0,0-14,3.36,110.22,110.22,0,0,0-10.67,5c-6.11,3.22-12.72,6.17-20.05,9.73-1.57.77-3.11,1.58-4.61,2.39a1.57,1.57,0,0,1,.17.21,1.4,1.4,0,0,1,.11,1.05c1.71-.88,3.48-1.7,5.29-2.42a50.75,50.75,0,0,1,14.08-7.33,45.21,45.21,0,0,1,5.06-1.16c1.69-.29,3.4-.54,5.2-.78a58.17,58.17,0,0,1,14.05-4.71.52.52,0,0,1,.54.09c.09.13,0,.26-.23.33a78.06,78.06,0,0,0-10,4.08,1.75,1.75,0,0,1,1.19,1.23,2.07,2.07,0,0,1-.57,1.76c.7-.19,1.39-.4,2.12-.56.44-.1.85,0,.91.33s-.22.64-.63.74c-2.87.72-5.59,1.62-8.23,2.54l-9,4.33a3,3,0,0,1,1.42,1h0l1.41-.6a81.92,81.92,0,0,1,12.87-6.62,33.08,33.08,0,0,1,15.76-2.31c.22,0,.39.14.38.28s-.19.24-.38.21a29.3,29.3,0,0,0-9.75.52h0a.19.19,0,0,1,.07.33.52.52,0,0,1-.48.1.2.2,0,0,1-.08-.33A56.11,56.11,0,0,0,226,228.85a65.33,65.33,0,0,1,14.24-4.58c.51-.28,1-.57,1.57-.84a.41.41,0,0,1,.45.11c.06.1,0,.26-.18.32a3.55,3.55,0,0,0-.44.21c1-.12,1.8.34,1.88,1.05s-.64,1.41-1.58,1.56c-2.48.63-4.9,1.38-7.3,2.21l-.74.39-.67.59A49.79,49.79,0,0,1,244.66,228a.48.48,0,1,1,.14.93c-6.22,1.81-12.14,5.05-18.61,8-1.74,1.85-3.44,3.72-5.08,5.59l.8-.3a49.9,49.9,0,0,0,9.32-5.39c2.91-2,5.7-4,8.93-5.2a.27.27,0,0,1,.38.12c.05.11,0,.26-.2.31-3.1,1.24-5.66,3.3-8.67,5.23a77.33,77.33,0,0,0-7.12,4.92c2.45-1.14,4.9-2.51,7.28-3.9a68.34,68.34,0,0,1,6.95-3.72.6.6,0,0,1,.59,0,.28.28,0,0,1,.07-.21,8.41,8.41,0,0,1,1.72-1.29.27.27,0,0,1,.38,0C241.63,233.16,241.59,233.3,241.46,233.41Zm-85.78,46.78-.21.06.49-.35,1.29-.17Zm-.48,10.22h0l-.7.2Zm29.85-51.82a75.5,75.5,0,0,1-8,5.69l1.64-1.71Q181.76,240.46,185.05,238.59ZM149.24,284.5a10.24,10.24,0,0,1,2.67-1.33,6.43,6.43,0,0,1,.68-1.71,35.77,35.77,0,0,1,2.66-4.14c-.42,0-.19-.31-.13-.5l.22-.57c-1.06,1.36-2.18,2.7-3.24,4.16C151.11,281.7,150.24,283.24,149.24,284.5Zm-2.65,12.26-.17.12-.46-.46Zm.78.73.13-.23C147.68,297.39,147.59,297.46,147.37,297.49Zm1.24-2.07a1.31,1.31,0,0,0-.37.24Zm15.87,3c-.81-.47-1.63-1-2.42-1.46.75.51,1.53,1,2.3,1.49Z"/></g></g></svg>