<svg xmlns="http://www.w3.org/2000/svg" viewBox="0 0 39.71 25.31"><title>Asset 1</title><g id="Layer_2" data-name="Layer 2"><g id="Layer_1-2" data-name="Layer 1"><path d="M39.46,11.88C39.11,11.4,30.65,0,19.86,0S.61,11.4.25,11.88a1.34,1.34,0,0,0,0,1.55c.36.48,8.81,11.88,19.61,11.88s19.25-11.4,19.6-11.88A1.31,1.31,0,0,0,39.46,11.88ZM19.86,23.36c-8,0-16-8.23-18-10.7,2-2.48,10-10.94,18-10.94s16,8.46,18,10.94C35.82,15.13,27.83,23.36,19.86,23.36Z"/><path d="M19.86,4.8a7.86,7.86,0,1,0,7.85,7.86A7.87,7.87,0,0,0,19.86,4.8Zm0,13.91c-2.89,0-6-3.28-6-6.17s3.16-5.93,6-5.93,6.05,3.16,6.05,6.05S22.75,18.71,19.86,18.71Z"/></g></g></svg>