<svg xmlns="http://www.w3.org/2000/svg" viewBox="0 0 90.98 90.98"><defs><style>.cls-1{fill:#d9b228;}.cls-2{fill:#fff;}</style></defs><title>Asset 3</title><g id="Layer_2" data-name="Layer 2"><g id="Layer_1-2" data-name="Layer 1"><path class="cls-1" d="M68.89,82.45a1.79,1.79,0,0,0-2.43-.64l-.07,0a1.77,1.77,0,1,0,1.78,3.07l.07,0A1.78,1.78,0,0,0,68.89,82.45Z"/><path class="cls-1" d="M48,21.12l-.12,0a1.77,1.77,0,0,0-1.17,3.35l.12,0a1.7,1.7,0,0,0,.59.1A1.77,1.77,0,0,0,48,21.12Z"/><path class="cls-2" d="M72.86,61.18,72,58a1.77,1.77,0,0,0-3.27-.39c-.2.36-.37.74-.54,1.11a7.58,7.58,0,0,1-.89,1.61,4,4,0,0,1-1,.62,4.84,4.84,0,0,0-3,2.88,5.1,5.1,0,0,0-.12,2.5,1.62,1.62,0,0,1,0,1v0c-.57,1.33-1.62,3.8-.15,5.9a3.7,3.7,0,0,0,3,1.88,3.64,3.64,0,0,0,.48,0c1.81-.3,3.17-2.19,4.29-5.94l2.09-7A1.84,1.84,0,0,0,72.86,61.18Zm-5.51,7A10.78,10.78,0,0,1,66,71.37l-.11-.14c-.34-.49.17-1.68.5-2.47l0,0a5,5,0,0,0,.29-3,1.87,1.87,0,0,1,0-.92c.07-.22.48-.44,1.11-.74.28-.13.58-.28.89-.46Z"/><polygon class="cls-1" points="30.27 32.51 27.26 38.54 24.25 44.56 30.27 50.59 36.3 50.59 39.32 50.59 42.33 56.62 42.33 65.66 48.36 74.7 54.39 71.69 57.4 65.66 60.41 59.63 60.41 56.62 60.41 53.61 66.44 47.58 60.41 44.56 54.39 35.52 48.36 32.51 45.34 32.51 42.33 32.51 39.32 29.49 33.29 29.49 30.27 32.51"/><path class="cls-2" d="M84.88,22.76A45.48,45.48,0,0,0,22.76,6.11,45.49,45.49,0,0,0,61.77,88a1.78,1.78,0,1,0-1.28-3.32,41.63,41.63,0,0,1-40.08-5.51L22,70.84l.77-.25a5.53,5.53,0,0,0,3.54-7l-.56-1.73a2,2,0,0,1,0-1.22,5.52,5.52,0,0,0-4.19-7.15l-4-.79L9.81,46.85a1.77,1.77,0,0,0-1.62-.27L3.66,48.05a41.31,41.31,0,0,1,0-4.85c.18.16.3.28.37.35a1.8,1.8,0,0,0,.33.4,1.77,1.77,0,0,0,1.4.49,26.31,26.31,0,0,0,3.19-.36c1.5-.22,3-.47,3-.48a1.75,1.75,0,0,0,1.34-1.05,1.78,1.78,0,0,0-.16-1.7l-2.18-3.2,3.12-2.23a1.82,1.82,0,0,0,.51-.56l4.84-8.44,1.95-2.09a7.49,7.49,0,0,0,1.44-8,8.16,8.16,0,0,0-3.23-3.82,42.4,42.4,0,0,1,5-3.36A41.61,41.61,0,0,1,45,3.59l-3.17,4L30.07,11.69a1.78,1.78,0,0,0-1.05,1l-3.29,8a1.78,1.78,0,0,0,.2,1.71l4.8,6.72a17,17,0,0,0-2.16,2.67c-.35.5-.68,1-.91,1.23l-.59.68a16.63,16.63,0,0,0-2.86,4,10.57,10.57,0,0,0,.88,10.7,10,10,0,0,0,9.42,4A12.91,12.91,0,0,0,36.24,52c1.52-.38,2-.41,2.5,0,.23.23.26.27.25,1a6.86,6.86,0,0,0,.16,1.76,5.57,5.57,0,0,0,1.5,2.46,3.77,3.77,0,0,1,.64.82c.56,1.33.32,2.06-.21,3.67,0,.14-.09.28-.14.43-.8,2.48.32,5,1.31,7.13.32.7.62,1.37.82,2,1.6,4.74,2.79,5.83,3.75,6.26a3.74,3.74,0,0,0,1.56.33c2.56,0,5.23-2.38,6.46-3.88a5.52,5.52,0,0,0,1.1-2.59,3.05,3.05,0,0,1,.22-.8,4.35,4.35,0,0,1,.59-.74,6.25,6.25,0,0,0,1.45-2.42,3.85,3.85,0,0,1,1.21-1.89l.39-.42c2.37-2.58,1.76-4.54,1.11-6.63-.54-1.75.41-2.87,2.7-5a19.46,19.46,0,0,0,2.83-3c.34-.5,1.4-2,.75-3.56S64.91,45.19,63.6,45a6,6,0,0,1-1.55-.36c-1.1-.72-1.77-2.22-2.42-3.67-.13-.29-.26-.58-.39-.85-.23-.5-.46-1.09-.71-1.73a14.91,14.91,0,0,0-2.62-4.89c-1.12-1.19-3.24-1.76-5.1-2.26-.63-.17-1.22-.33-1.61-.48a1.78,1.78,0,0,0-1-.06,4.69,4.69,0,0,0-1.9.78,2.25,2.25,0,0,0-.63.86,21.12,21.12,0,0,1-2.09-1.28l0,0a2.46,2.46,0,0,0-.16-1.71c-1-2.1-4.28-1.94-4.94-1.88-.36,0-.83,0-1.33.06-.77,0-1.63.06-2.48.16l0-.13a4.53,4.53,0,0,1,4.26-3h1a1.78,1.78,0,1,0,0-3.55h-1A8.13,8.13,0,0,0,32,24.81L29.39,21.1,32,14.78l11.5-4a1.82,1.82,0,0,0,.8-.57l5.11-6.41A41.77,41.77,0,0,1,86,34.71l-.75.67a4.74,4.74,0,0,0-1.58,3.45v0L82.43,35.5a4.19,4.19,0,0,0-.8-1.37l-2.19-2.57A4.46,4.46,0,0,0,76.05,30H73.37a2.57,2.57,0,0,0-2.14,4l.27.41a19.56,19.56,0,0,1-5.86,3.48l-3.68-7V29.29A1.79,1.79,0,0,0,61.41,28l-3.3-3.16a2,2,0,0,0-.64-.39l-3-1a1.78,1.78,0,1,0-1.18,3.35l2.62.92,2.48,2.37v1.24a1.85,1.85,0,0,0,.2.83l4.6,8.8a1.77,1.77,0,0,0,2.19.85l1.34-.5a23.26,23.26,0,0,0,8.34-5.33,1.79,1.79,0,0,0,.22-2.24l-.1-.15h.85a.9.9,0,0,1,.69.32l2.19,2.56a1.12,1.12,0,0,1,.16.28l2.42,6.65a1.77,1.77,0,0,0,1.28,1.12,1.74,1.74,0,0,0,.39.05A1.76,1.76,0,0,0,84.43,44l1.15-1.15a5.5,5.5,0,0,0,1.47-2.67A42.07,42.07,0,0,1,71.43,78.45a1.77,1.77,0,0,0,2.19,2.79A45.47,45.47,0,0,0,84.88,22.76ZM8.4,50.24l7.33,5.57a1.72,1.72,0,0,0,.73.33l4.42.87a2,2,0,0,1,1.5,2.55,5.51,5.51,0,0,0,0,3.43l.57,1.73a2,2,0,0,1-1.27,2.49l-1.77.57a1.78,1.78,0,0,0-1.19,1.36l-1.43,7.42a42.53,42.53,0,0,1-8.09-10.1A41.61,41.61,0,0,1,4,51.66ZM18.76,21.9l-2.09,2.24a1.59,1.59,0,0,0-.25.33l-4.74,8.29-4.22,3A1.78,1.78,0,0,0,7,38.22L8.6,40.54c-.91.13-1.72.24-2.27.3L6,40.54c-.42-.4-1-.92-1.89-1.69A42.07,42.07,0,0,1,16.64,15.08a4.63,4.63,0,0,1,2.88,2.64A4,4,0,0,1,18.76,21.9Zm14.48,9.71a11.66,11.66,0,0,1,4-.56c.54,0,1.05,0,1.5-.07a4.82,4.82,0,0,1,.76,0,1.8,1.8,0,0,0-.1.92,1.74,1.74,0,0,0,.92,1.29c.33.18.79.49,1.28.82,1.39.92,3,2,4.45,2.07a3,3,0,0,0,2.41-1l.07-.07a1.88,1.88,0,0,0,.48-.59l.89.25a11.63,11.63,0,0,1,3.44,1.27,12.7,12.7,0,0,1,1.9,3.74c.27.69.52,1.34.8,1.94l.36.8c.82,1.83,1.75,3.9,3.72,5.19a7.16,7.16,0,0,0,3,.9l.39.06a16.5,16.5,0,0,1-2.26,2.37c-2.2,2-4.93,4.6-3.67,8.67.59,1.92.62,2.12-.34,3.16l-.36.4a7.31,7.31,0,0,0-2,3.25,2.72,2.72,0,0,1-.72,1.13,7.91,7.91,0,0,0-1,1.31,5.74,5.74,0,0,0-.65,1.89,2,2,0,0,1-.37,1,10.47,10.47,0,0,1-2.24,2,2.92,2.92,0,0,1-1.49.59c-.19-.2-.88-1.09-1.91-4.17-.26-.76-.62-1.55-1-2.3-.76-1.67-1.54-3.39-1.16-4.57,0-.14.09-.28.14-.41.6-1.85,1.18-3.6.11-6.15a6.15,6.15,0,0,0-1.29-1.84A3.35,3.35,0,0,1,42.6,54a4,4,0,0,1-.06-.89,4.38,4.38,0,0,0-1.38-3.64c-2-1.84-4.25-1.28-5.77-.9a11.22,11.22,0,0,1-1.3.27A6.38,6.38,0,0,1,28,46.26a7,7,0,0,1-.56-7.11A13.61,13.61,0,0,1,29.72,36l.63-.71c.34-.4.72-.94,1.13-1.51A13.33,13.33,0,0,1,33.24,31.61Z"/></g></g></svg>