<svg xmlns="http://www.w3.org/2000/svg" viewBox="0 0 44.3 44.7"><defs><style>.cls-1{fill:#fff;stroke:#000;stroke-miterlimit:10;stroke-width:2px;}.cls-2{fill:#d9b228;}</style></defs><title>Asset 5</title><g id="Layer_2" data-name="Layer 2"><g id="Layer_1-2" data-name="Layer 1"><rect class="cls-1" x="1" y="1" width="42.3" height="42.7"/><path class="cls-2" d="M29.91,34.61a.59.59,0,0,0-.8-.21h0a.59.59,0,0,0,.3,1.1.51.51,0,0,0,.29-.08h0A.59.59,0,0,0,29.91,34.61Z"/><path class="cls-2" d="M23,14.26h0a.59.59,0,1,0-.39,1.11l0,0a.63.63,0,0,0,.19,0,.6.6,0,0,0,.56-.39A.61.61,0,0,0,23,14.26Z"/><path d="M31.23,27.55,31,26.49a.6.6,0,0,0-.5-.44.58.58,0,0,0-.59.31,2.42,2.42,0,0,0-.18.36,2.42,2.42,0,0,1-.3.54,1.37,1.37,0,0,1-.34.2,1.62,1.62,0,0,0-1,1,1.73,1.73,0,0,0,0,.83.56.56,0,0,1,0,.35h0a2,2,0,0,0-.05,2,1.24,1.24,0,0,0,1,.62h.16c.6-.1,1.05-.72,1.42-2l.69-2.34A.5.5,0,0,0,31.23,27.55ZM29.4,29.88A3.54,3.54,0,0,1,29,30.94l0-.05c-.11-.16.06-.56.17-.82h0a1.6,1.6,0,0,0,.09-1,.63.63,0,0,1,0-.31c0-.07.16-.15.37-.25l.3-.15Z"/><polygon class="cls-2" points="17.1 18.04 16.1 20.04 15.1 22.04 17.1 24.04 19.1 24.04 20.1 24.04 21.1 26.04 21.1 29.04 23.1 32.04 25.1 31.04 26.1 29.04 27.1 27.04 27.1 26.04 27.1 25.04 29.1 23.04 27.1 22.04 25.1 19.04 23.1 18.04 22.1 18.04 21.1 18.04 20.1 17.04 18.1 17.04 17.1 18.04"/><path d="M35.22,14.81a15.09,15.09,0,1,0-18,21.79,15.29,15.29,0,0,0,5,.84,15.13,15.13,0,0,0,5.39-1,.61.61,0,0,0,.34-.77.59.59,0,0,0-.76-.33,13.85,13.85,0,0,1-13.3-1.83l.52-2.76.26-.08a1.84,1.84,0,0,0,1.18-2.31l-.19-.58a.68.68,0,0,1,0-.4A1.84,1.84,0,0,0,14.21,25l-1.33-.26L10.31,22.8a.58.58,0,0,0-.54-.09l-1.5.49a14.41,14.41,0,0,1,0-1.61l.12.12a.45.45,0,0,0,.11.13A.59.59,0,0,0,9,22,7.92,7.92,0,0,0,10,21.88c.5-.07,1-.16,1-.16a.56.56,0,0,0,.44-.35.59.59,0,0,0-.05-.56l-.72-1.06,1-.74a.52.52,0,0,0,.17-.19l1.6-2.8.65-.69a2.49,2.49,0,0,0,.48-2.64,2.77,2.77,0,0,0-1.07-1.27,12.85,12.85,0,0,1,1.65-1.11A13.75,13.75,0,0,1,22,8.45l-1,1.32L17,11.14a.57.57,0,0,0-.35.33l-1.09,2.64a.61.61,0,0,0,.07.57l1.59,2.23a5.2,5.2,0,0,0-.71.89,4.83,4.83,0,0,1-.31.4l-.19.23a5.19,5.19,0,0,0-.95,1.31,3.52,3.52,0,0,0,.29,3.56,3.34,3.34,0,0,0,3.12,1.34,4.56,4.56,0,0,0,.58-.12c.51-.13.67-.14.83,0s.08.09.08.34a2.65,2.65,0,0,0,.05.59,1.9,1.9,0,0,0,.5.81,1.45,1.45,0,0,1,.22.27,1.47,1.47,0,0,1-.08,1.22s0,.09,0,.14a3.28,3.28,0,0,0,.43,2.37,4.76,4.76,0,0,1,.27.65c.53,1.57.93,1.93,1.25,2.08a1.35,1.35,0,0,0,.52.11,3.29,3.29,0,0,0,2.14-1.29,1.72,1.72,0,0,0,.36-.86,1.16,1.16,0,0,1,.08-.26,1.38,1.38,0,0,1,.19-.25,2.08,2.08,0,0,0,.49-.8,1.2,1.2,0,0,1,.4-.63l.13-.14a1.89,1.89,0,0,0,.36-2.2c-.18-.58.14-.95.9-1.66a6.94,6.94,0,0,0,.94-1,1.31,1.31,0,0,0,.25-1.18c-.22-.5-.76-.58-1.19-.65a1.53,1.53,0,0,1-.52-.12,2.71,2.71,0,0,1-.8-1.21c0-.1-.09-.19-.13-.29s-.15-.36-.23-.57a5,5,0,0,0-.88-1.62,3.81,3.81,0,0,0-1.69-.75c-.21-.06-.4-.11-.53-.16a.57.57,0,0,0-.34,0,1.57,1.57,0,0,0-.63.26.81.81,0,0,0-.21.28,6.66,6.66,0,0,1-.69-.42h0a.84.84,0,0,0-.06-.57c-.33-.69-1.42-.64-1.64-.62l-.44,0c-.25,0-.54,0-.82.05v0a1.52,1.52,0,0,1,1.42-1h.33a.59.59,0,0,0,.59-.59.58.58,0,0,0-.59-.59H20a2.68,2.68,0,0,0-2.28,1.27l-.88-1.23.86-2.1,3.82-1.34a.58.58,0,0,0,.26-.18l1.7-2.13A13.88,13.88,0,0,1,35.59,18.77l-.25.22a1.6,1.6,0,0,0-.53,1.15h0L34.4,19a1.56,1.56,0,0,0-.26-.45l-.73-.85a1.47,1.47,0,0,0-1.12-.52H31.4a.86.86,0,0,0-.71,1.33l.09.13a6.55,6.55,0,0,1-2,1.16l-1.22-2.34V17a.56.56,0,0,0-.18-.42l-1.1-1.05a.57.57,0,0,0-.21-.13l-1-.35a.59.59,0,0,0-.39,1.12l.87.3.82.79v.41a.64.64,0,0,0,.07.27L28,20.83a.57.57,0,0,0,.72.28L29.2,21A7.6,7.6,0,0,0,32,19.18a.59.59,0,0,0,.08-.74l0-.05h.28a.33.33,0,0,1,.23.1l.72.86a.2.2,0,0,1,.06.09l.8,2.2a.61.61,0,0,0,.42.38h.13a.59.59,0,0,0,.42-.17l.38-.38a1.91,1.91,0,0,0,.49-.89,14,14,0,0,1-5.19,12.7.59.59,0,0,0,.73.92,15.07,15.07,0,0,0,3.74-19.4ZM9.84,23.93l2.43,1.85a.6.6,0,0,0,.25.1l1.46.29a.66.66,0,0,1,.5.85,1.85,1.85,0,0,0,0,1.14l.19.57a.67.67,0,0,1-.43.83l-.58.19a.58.58,0,0,0-.4.45l-.47,2.46a14,14,0,0,1-4.4-8.26Zm3.44-9.41-.69.75a.48.48,0,0,0-.09.11l-1.57,2.75-1.4,1a.59.59,0,0,0-.14.81l.52.77-.75.1-.11-.1-.63-.56a13.91,13.91,0,0,1,4.16-7.89,1.53,1.53,0,0,1,.95.88A1.28,1.28,0,0,1,13.28,14.52Zm4.81,3.23a3.78,3.78,0,0,1,1.31-.19l.5,0h.25a.6.6,0,0,0,.27.73,4,4,0,0,1,.43.27,3.38,3.38,0,0,0,1.48.69,1,1,0,0,0,.8-.34l0,0a.64.64,0,0,0,.16-.2l.29.09a4,4,0,0,1,1.15.42,4.35,4.35,0,0,1,.63,1.24c.08.23.17.44.26.64l.12.27A3.63,3.63,0,0,0,27,23.05a2.48,2.48,0,0,0,1,.3l.13,0a5.44,5.44,0,0,1-.75.78c-.73.68-1.64,1.53-1.22,2.88.2.64.21.71-.11,1l-.12.13a2.39,2.39,0,0,0-.67,1.08.88.88,0,0,1-.24.37,2.51,2.51,0,0,0-.33.44,1.86,1.86,0,0,0-.21.63.87.87,0,0,1-.12.34,3.59,3.59,0,0,1-.75.66,1,1,0,0,1-.49.2,4.1,4.1,0,0,1-.64-1.39,8.09,8.09,0,0,0-.31-.76,2.43,2.43,0,0,1-.39-1.51l0-.14a2.56,2.56,0,0,0,0-2,1.88,1.88,0,0,0-.42-.61,1.19,1.19,0,0,1-.23-.3,1.42,1.42,0,0,1,0-.3,1.46,1.46,0,0,0-.46-1.21,1.87,1.87,0,0,0-1.91-.29c-.16,0-.3.07-.43.08a2.11,2.11,0,0,1-2-.85,2.32,2.32,0,0,1-.19-2.36,4.3,4.3,0,0,1,.77-1c.07-.08.14-.15.2-.23a6.16,6.16,0,0,0,.38-.51A4.37,4.37,0,0,1,18.09,17.75Z"/></g></g></svg>