<svg xmlns="http://www.w3.org/2000/svg" viewBox="0 0 90.58 90.58"><defs><style>.cls-1{fill:#d9b228;}.cls-2{fill:#fff;}</style></defs><title>Asset 1</title><g id="Layer_2" data-name="Layer 2"><g id="Layer_1-2" data-name="Layer 1"><path class="cls-1" d="M82.85,23a1.76,1.76,0,1,0,.52,1.25A1.77,1.77,0,0,0,82.85,23Z"/><path class="cls-1" d="M52.84,78a1.77,1.77,0,1,0,0,2.5,1.79,1.79,0,0,0,0-2.5Z"/><path class="cls-2" d="M40,53.78a6.73,6.73,0,1,0,6.72,6.73A6.74,6.74,0,0,0,40,53.78Zm0,9.91a3.19,3.19,0,1,1,3.18-3.18A3.19,3.19,0,0,1,40,63.69Z"/><path class="cls-2" d="M56.54,53.78a6.73,6.73,0,1,0,6.72,6.73A6.73,6.73,0,0,0,56.54,53.78Zm0,9.91a3.19,3.19,0,1,1,3.18-3.18A3.19,3.19,0,0,1,56.54,63.69Z"/><path class="cls-2" d="M73.05,53.78a6.73,6.73,0,1,0,6.72,6.73A6.73,6.73,0,0,0,73.05,53.78Zm0,9.91a3.19,3.19,0,1,1,3.19-3.18A3.19,3.19,0,0,1,73.05,63.69Z"/><path class="cls-2" d="M23.51,35.38a6.73,6.73,0,1,0,6.73,6.73A6.74,6.74,0,0,0,23.51,35.38Zm0,9.91a3.19,3.19,0,1,1,3.19-3.18A3.19,3.19,0,0,1,23.51,45.29Z"/><path class="cls-2" d="M56.54,35.38a6.73,6.73,0,1,0,6.72,6.73A6.73,6.73,0,0,0,56.54,35.38Zm0,9.91a3.19,3.19,0,1,1,3.18-3.18A3.19,3.19,0,0,1,56.54,45.29Z"/><path class="cls-2" d="M73.05,35.38a6.73,6.73,0,1,0,6.72,6.73A6.73,6.73,0,0,0,73.05,35.38Zm0,9.91a3.19,3.19,0,1,1,3.19-3.18A3.19,3.19,0,0,1,73.05,45.29Z"/><path class="cls-2" d="M40,35.38a6.73,6.73,0,1,0,6.72,6.73A6.74,6.74,0,0,0,40,35.38Zm0,9.91a3.19,3.19,0,1,1,3.18-3.18A3.19,3.19,0,0,1,40,45.29Z"/><polygon class="cls-1" points="15.01 53.41 8.98 56.42 2.95 62.45 2.95 68.48 8.98 77.52 18.02 80.53 27.06 74.51 27.06 65.46 27.06 59.44 21.03 53.41 15.01 53.41"/><path class="cls-2" d="M81.74,7.78H73.3V5.31a5.31,5.31,0,1,0-10.61,0V7.78H33V5.31a5.31,5.31,0,0,0-10.62,0V7.85a1.84,1.84,0,0,0-.47-.07h-7A8.86,8.86,0,0,0,6,16.63V46.76a1.77,1.77,0,0,0,3.54,0V26H73.3a1.77,1.77,0,1,0,0-3.54H9.52V16.63a5.31,5.31,0,0,1,5.31-5.31h7a1.84,1.84,0,0,0,.47-.06v2.27a5.31,5.31,0,1,0,10.62,0V11.32H62.69v2.21a5.31,5.31,0,1,0,10.61,0V11.32h8.44A5.31,5.31,0,0,1,87,16.63V83.86a3.19,3.19,0,0,1-6.37,0V79.28a1.77,1.77,0,0,0-1.77-1.77H58.32a1.77,1.77,0,0,0,0,3.54H77.13v2.81A6.7,6.7,0,0,0,77.94,87H6.72a3.19,3.19,0,0,1-3.18-3.18V81.05h39.6a1.77,1.77,0,1,0,0-3.54H25.46a14.51,14.51,0,1,0-18.91,0H1.77A1.77,1.77,0,0,0,0,79.28v4.58a6.73,6.73,0,0,0,6.72,6.72H83.86a6.73,6.73,0,0,0,6.72-6.72V16.63A8.86,8.86,0,0,0,81.74,7.78ZM29.43,13.53a1.77,1.77,0,0,1-3.54,0V5.31a1.77,1.77,0,0,1,3.54,0Zm40.33,0a1.77,1.77,0,1,1-3.53,0V5.31a1.77,1.77,0,1,1,3.53,0ZM5,66.52a11,11,0,1,1,11,11A11,11,0,0,1,5,66.52Z"/><path class="cls-2" d="M22.31,62.21a1.77,1.77,0,0,0-2.5,0L14.05,68l-2-2a1.77,1.77,0,0,0-2.5,0,1.75,1.75,0,0,0,0,2.5l3.22,3.22a1.76,1.76,0,0,0,2.5,0l7-7A1.77,1.77,0,0,0,22.31,62.21Z"/></g></g></svg>