<svg xmlns="http://www.w3.org/2000/svg" viewBox="0 0 44.3 44.7"><defs><style>.cls-1,.cls-3{fill:#fff;}.cls-1{stroke:#000;stroke-miterlimit:10;stroke-width:2px;}.cls-2{fill:#d9b228;}</style></defs><title>Asset 6</title><g id="Layer_2" data-name="Layer 2"><g id="Layer_1-2" data-name="Layer 1"><rect class="cls-1" x="1" y="1" width="42.3" height="42.7"/><path class="cls-2" d="M34.61,15a.58.58,0,0,0-.41-.17.59.59,0,0,0-.42.17.58.58,0,0,0-.17.41.58.58,0,0,0,.59.59.58.58,0,0,0,.41-.17.59.59,0,0,0,.17-.42A.58.58,0,0,0,34.61,15Z"/><path class="cls-2" d="M24.65,33.21a.58.58,0,0,0-.41-.17.58.58,0,0,0-.59.59.58.58,0,0,0,.17.41.59.59,0,0,0,.42.17.58.58,0,0,0,.58-.58A.59.59,0,0,0,24.65,33.21Z"/><path d="M20.4,25.17a2.23,2.23,0,1,0,2.23,2.23A2.23,2.23,0,0,0,20.4,25.17Zm0,3.28a1.06,1.06,0,0,1,0-2.11,1.06,1.06,0,1,1,0,2.11Z"/><path d="M25.88,25.17a2.23,2.23,0,1,0,2.23,2.23A2.23,2.23,0,0,0,25.88,25.17Zm0,3.28a1.06,1.06,0,1,1,1.06-1.05A1.06,1.06,0,0,1,25.88,28.45Z"/><path d="M31.36,25.17a2.23,2.23,0,1,0,2.23,2.23A2.23,2.23,0,0,0,31.36,25.17Zm0,3.28a1.06,1.06,0,1,1,1.06-1.05A1.06,1.06,0,0,1,31.36,28.45Z"/><path d="M14.92,19.06a2.23,2.23,0,1,0,2.23,2.23A2.23,2.23,0,0,0,14.92,19.06Zm0,3.29A1.06,1.06,0,1,1,16,21.29,1.05,1.05,0,0,1,14.92,22.35Z"/><path d="M25.88,19.06a2.23,2.23,0,1,0,2.23,2.23A2.23,2.23,0,0,0,25.88,19.06Zm0,3.29a1.06,1.06,0,1,1,1.06-1.06A1.06,1.06,0,0,1,25.88,22.35Z"/><path d="M31.36,19.06a2.23,2.23,0,1,0,2.23,2.23A2.23,2.23,0,0,0,31.36,19.06Zm0,3.29a1.06,1.06,0,1,1,1.06-1.06A1.06,1.06,0,0,1,31.36,22.35Z"/><path d="M20.4,19.06a2.23,2.23,0,1,0,2.23,2.23A2.23,2.23,0,0,0,20.4,19.06Zm0,3.29a1.06,1.06,0,1,1,1.06-1.06A1.05,1.05,0,0,1,20.4,22.35Z"/><polygon class="cls-2" points="12.1 25.04 10.1 26.04 8.1 28.04 8.1 30.04 10.1 33.04 13.1 34.04 16.1 32.04 16.1 29.04 16.1 27.04 14.1 25.04 12.1 25.04"/><path d="M34.24,9.91h-2.8V9.08a1.76,1.76,0,0,0-3.52,0v.83H18.06V9.08a1.76,1.76,0,1,0-3.52,0v.85a.41.41,0,0,0-.16,0H12a2.93,2.93,0,0,0-2.93,2.93v10a.59.59,0,1,0,1.17,0V16H31.44a.59.59,0,1,0,0-1.17H10.28V12.84A1.76,1.76,0,0,1,12,11.08h2.34l.16,0v.75a1.76,1.76,0,1,0,3.52,0v-.73h9.86v.73a1.76,1.76,0,0,0,3.52,0v-.73h2.8A1.76,1.76,0,0,1,36,12.84V35.15a1.06,1.06,0,0,1-2.11,0V33.63A.59.59,0,0,0,33.3,33H26.47a.59.59,0,0,0,0,1.17h6.24v.94A2.19,2.19,0,0,0,33,36.2H9.35a1,1,0,0,1-1-1.05v-.94H21.43a.59.59,0,1,0,0-1.17H15.57A4.82,4.82,0,1,0,9.3,33H7.71a.58.58,0,0,0-.59.59v1.52a2.23,2.23,0,0,0,2.23,2.23H34.94a2.23,2.23,0,0,0,2.23-2.23V12.84A2.93,2.93,0,0,0,34.24,9.91Zm-17.35,1.9a.59.59,0,0,1-.59.59.58.58,0,0,1-.59-.59V9.08a.58.58,0,0,1,.59-.58.59.59,0,0,1,.59.58Zm13.38,0a.59.59,0,0,1-1.18,0V9.08a.59.59,0,0,1,1.18,0ZM8.79,29.39A3.64,3.64,0,1,1,12.43,33,3.65,3.65,0,0,1,8.79,29.39Z"/><path class="cls-3" d="M14.52,28a.59.59,0,0,0-.83,0l-1.91,1.91-.65-.65a.59.59,0,1,0-.83.83l1.07,1.07a.58.58,0,0,0,.41.17.59.59,0,0,0,.42-.17l2.32-2.33A.59.59,0,0,0,14.52,28Z"/></g></g></svg>