<svg xmlns="http://www.w3.org/2000/svg" viewBox="0 0 90.58 63.69"><defs><style>.cls-1{fill:#d9b228;}.cls-2{fill:#fff;}</style></defs><title>Asset 2</title><g id="Layer_2" data-name="Layer 2"><g id="Layer_1-2" data-name="Layer 1"><path class="cls-1" d="M35.93,32.36a1.77,1.77,0,1,0-2.51,2.5,1.77,1.77,0,0,0,2.51-2.5Z"/><path class="cls-1" d="M45.29,35.38a5.31,5.31,0,1,0,5.31,5.31A5.31,5.31,0,0,0,45.29,35.38Z"/><path class="cls-2" d="M45.29,26.54a14,14,0,0,0-5.68,1.19A1.76,1.76,0,1,0,41,31a10.52,10.52,0,0,1,4.26-.88A10.62,10.62,0,1,1,34.68,40.69v-.18a1.77,1.77,0,1,0-3.54-.08v.26A14.15,14.15,0,1,0,45.29,26.54Z"/><path class="cls-2" d="M45.29,0a1.77,1.77,0,0,0-1.77,1.77V12.38a1.77,1.77,0,0,0,3.54,0V1.77A1.77,1.77,0,0,0,45.29,0Z"/><path class="cls-2" d="M25.53,13.12,18,5.61a1.77,1.77,0,0,0-2.5,2.5L23,15.62a1.77,1.77,0,0,0,2.51-2.5Z"/><path class="cls-2" d="M75.06,5.61a1.77,1.77,0,0,0-2.5,0l-7.5,7.51a1.75,1.75,0,0,0,0,2.5,1.77,1.77,0,0,0,2.5,0l7.5-7.51A1.77,1.77,0,0,0,75.06,5.61Z"/><path class="cls-2" d="M90.14,41C78.9,28.27,62.21,17.69,45.29,17.69S11.68,28.27.44,41A1.77,1.77,0,0,0,3.1,43.34c.37-.43.76-.86,1.15-1.28,8.74,13.21,24.59,21.63,41,21.63s32.3-8.42,41-21.63c.39.42.78.85,1.16,1.28A1.77,1.77,0,0,0,90.14,41ZM45.29,60.15c-15.55,0-30.51-8.08-38.51-20.69,6.3-6.18,20.87-18.23,38.51-18.23S77.5,33.28,83.8,39.46C75.8,52.07,60.84,60.15,45.29,60.15Z"/></g></g></svg>