<svg xmlns="http://www.w3.org/2000/svg" viewBox="0 0 44.3 44.7"><defs><style>.cls-1{fill:#fff;stroke:#000;stroke-miterlimit:10;stroke-width:2px;}.cls-2{fill:#d9b228;}</style></defs><title>Asset 4</title><g id="Layer_2" data-name="Layer 2"><g id="Layer_1-2" data-name="Layer 1"><rect class="cls-1" x="1" y="1" width="42.3" height="42.7"/><path class="cls-2" d="M19,22.52a.59.59,0,1,0,0,.83A.59.59,0,0,0,19,22.52Z"/><path class="cls-2" d="M22.15,23.52a1.77,1.77,0,1,0,1.76,1.76A1.76,1.76,0,0,0,22.15,23.52Z"/><path d="M22.15,20.59a4.7,4.7,0,0,0-1.89.39.59.59,0,1,0,.48,1.08,3.4,3.4,0,0,1,1.41-.3,3.53,3.53,0,1,1-3.52,3.52v-.06a.59.59,0,1,0-1.18,0v.08a4.7,4.7,0,1,0,4.7-4.69Z"/><path d="M22.15,11.78a.59.59,0,0,0-.59.59v3.52a.58.58,0,0,0,.59.59.59.59,0,0,0,.59-.59V12.37A.6.6,0,0,0,22.15,11.78Z"/><path d="M15.59,16.14,13.1,13.65a.59.59,0,0,0-.83.83L14.76,17a.59.59,0,1,0,.83-.83Z"/><path d="M32,13.65a.59.59,0,0,0-.83,0l-2.49,2.49a.59.59,0,0,0,.83.83L32,14.48A.59.59,0,0,0,32,13.65Z"/><path d="M37,25.39c-3.73-4.23-9.27-7.74-14.88-7.74S11,21.16,7.27,25.39a.58.58,0,0,0,.88.77l.38-.42a16.51,16.51,0,0,0,27.24,0l.38.42a.58.58,0,0,0,.88-.77ZM22.15,31.74A15.31,15.31,0,0,1,9.37,24.88c2.09-2.05,6.92-6.05,12.78-6.05s10.68,4,12.78,6A15.31,15.31,0,0,1,22.15,31.74Z"/></g></g></svg>