<svg xmlns="http://www.w3.org/2000/svg" viewBox="0 0 49.12 12.44"><defs><style>.cls-1{fill:#fff;}.cls-2{fill:#debc41;}.cls-3{fill:#6d6e70;}</style></defs><title>Asset 1</title><g id="Layer_2" data-name="Layer 2"><g id="Layer_1-2" data-name="Layer 1"><path class="cls-1" d="M10.74,12.44H0V1.71H10.74ZM.9,11.54H9.84V2.61H.9Z"/><path class="cls-1" d="M14.91,3.21h.32V6l3.19-2.76h.4l-3.44,3,4.32,4.53h-.44l-4-4.18v4.18h-.33Z"/><path class="cls-1" d="M20,10.87H19.2l0,0L15.38,6.88v4h-.6V3.08h.59v2.6l3-2.6h.8l-3.6,3.14Zm-.7-.26h.08l-4.21-4.4,3.07-2.68L15.13,6.24Zm-4.26,0h.06V6.25h0V3.35h0Z"/><path class="cls-1" d="M26.68,3.21H27v7.64L21.44,4v6.7h-.29V3.1l5.53,6.81Z"/><path class="cls-1" d="M27.11,11.22,21.57,4.41v6.46H21V2.73l5.54,6.8V3.08h.56Zm-5.83-.61h0V3.66l5.54,6.82V3.35h0v6.93l-5.54-6.8Z"/><path class="cls-1" d="M32.27,3,36,10.74h-.35L34.26,7.87h-4l-1.41,2.87h-.31Zm0,.7L30.37,7.58h3.77Z"/><path class="cls-1" d="M36.25,10.87H35.6L34.18,8H30.32l-1.4,2.87h-.61l4-8.14Zm-.48-.26h.06L32.27,3.34l-3.54,7.27h0l1.4-2.87h4.19Zm-1.42-2.9H30.16l2.08-4.29Zm-3.77-.26h3.35L32.25,4Z"/><path class="cls-1" d="M40.49,10.85h-.11a3.68,3.68,0,0,1-1.93-.54A4.05,4.05,0,0,1,37,8.87,3.82,3.82,0,0,1,36.53,7a3.74,3.74,0,0,1,1.15-2.75,3.8,3.8,0,0,1,2.76-1.15,3.93,3.93,0,0,1,2,.57V4a3.55,3.55,0,0,0-2-.65,3.47,3.47,0,0,0-2.53,1.06,3.5,3.5,0,0,0-1,2.54,3.5,3.5,0,0,0,1,2.55,3.47,3.47,0,0,0,2.53,1.06,3.54,3.54,0,0,0,2-.64v.37A3.76,3.76,0,0,1,40.49,10.85Z"/><path class="cls-1" d="M40.49,11h-.11a3.79,3.79,0,0,1-2-.56,4,4,0,0,1-1.46-1.49,3.83,3.83,0,0,1-.53-2,3.88,3.88,0,0,1,1.19-2.84,3.91,3.91,0,0,1,2.85-1.19,4.15,4.15,0,0,1,2.1.58l.07,0v.7l-.21-.14a3.35,3.35,0,0,0-2-.62,3.3,3.3,0,0,0-2.43,1A3.32,3.32,0,0,0,37,7,3.35,3.35,0,0,0,38,9.4a3.31,3.31,0,0,0,2.43,1,3.42,3.42,0,0,0,2-.62l.21-.14v.69l-.06,0A3.84,3.84,0,0,1,40.49,11ZM40.44,3.2a3.66,3.66,0,0,0-2.67,1.11A3.6,3.6,0,0,0,36.66,7a3.63,3.63,0,0,0,.5,1.84,3.88,3.88,0,0,0,1.36,1.4,3.6,3.6,0,0,0,1.86.52h.11a3.59,3.59,0,0,0,1.86-.51v-.05a3.75,3.75,0,0,1-1.91.53,3.57,3.57,0,0,1-2.62-1.1A3.61,3.61,0,0,1,36.73,7a3.59,3.59,0,0,1,1.09-2.63,3.57,3.57,0,0,1,2.62-1.1,3.66,3.66,0,0,1,1.91.54V3.7A3.92,3.92,0,0,0,40.44,3.2Z"/><path class="cls-1" d="M44,3.21h.32V6l3.18-2.76h.41l-3.45,3,4.33,4.53h-.44l-4-4.18v4.18H44Z"/><path class="cls-1" d="M49.12,10.87h-.81l0,0L44.49,6.88v4h-.6V3.08h.59v2.6l3-2.6h.8l-3.6,3.14Zm-.7-.26h.08l-4.21-4.4,3.06-2.67-3.11,2.7Zm-4.26,0h.06V6.25h0V3.35h-.05Z"/><path class="cls-2" d="M1.63,10.12l0,0a.22.22,0,0,1,0,.13,2.38,2.38,0,0,0,.16-.4,1.6,1.6,0,0,0,.05-.21c0-.07,0-.15,0-.22l0-.21L2,9a2.68,2.68,0,0,0,0-.39C2,8.43,2,8.28,2,8.24s-.15,0-.22.2l-.06.09a1.78,1.78,0,0,0-.25.33c-.08.13-.15.27-.23.42l.11-.17a1.82,1.82,0,0,0-.11.28l.05,0a1.34,1.34,0,0,0-.12,1c.1.24.29.17.42-.13Z"/><path class="cls-2" d="M2.13,9.64,2,9.88c0,.08-.07.17-.11.25l0,0H2a.8.8,0,0,1,0-.32c0-.12,0-.25,0-.38V9.37a.12.12,0,0,0,0-.09s-.11,0-.15.14l0,.13a1.35,1.35,0,0,0-.07,1c0,.05.09,0,.14,0s.14-.1.17-.26,0-.3-.06-.32l0-.08L2,10s0-.07,0-.13V9.71l0-.17-.18.05v.09h0c0,.17,0,.34,0,.52a.49.49,0,0,0,0,.12v.11c0,.07.07.07.11,0l0-.1,0,0c.07-.22.13-.45.22-.66a.1.1,0,0,0,0-.09S2.15,9.61,2.13,9.64Z"/><path class="cls-2" d="M2,10.43a.42.42,0,0,0,0,.12v0l0-.07S2,10.43,2,10.43Z"/><path class="cls-2" d="M2,10.58l0,0H2Z"/><path class="cls-2" d="M6.75,2.65c.28-.2.57-.38.87-.56s.59-.32.89-.47c0,0,0,0,0,0s0,0,0,0c-.29.14-.59.3-.88.47s-.59.36-.88.55l0,0S6.73,2.66,6.75,2.65Z"/><path class="cls-2" d="M11.46,1.28s0,0,0,0h0s0,0,0,0Z"/><path class="cls-2" d="M11.58,2.06a.91.91,0,0,0-.19.13h0a0,0,0,0,1,0,0l-.75.51-.4.25-.4.26a.11.11,0,0,1,0,0,.31.31,0,0,1-.17.14l-.06,0-.72.33a.53.53,0,0,1-.13.13l-.47.48,0,0s0,.08,0,.12l-.07.05.22-.13,0,0,.23-.16,1-.74.54-.38.54-.39a0,0,0,0,1,.05,0s0,0,0,0c-.2.19-.4.4-.59.6s-.4.4-.62.59l-.39.33c-.12.11-.24.22-.35.34s-.45.46-.67.71A8.2,8.2,0,0,0,6.82,7c-.29.41-.56.8-.8,1.19a10,10,0,0,0-.63,1.15.63.63,0,0,1-.1.2.53.53,0,0,1-.13.16.37.37,0,0,1-.31.12A.24.24,0,0,1,4.7,9.7a.34.34,0,0,1-.09-.19l0,.08-.06.11a.83.83,0,0,1-.11.15.47.47,0,0,1-.12.09L4.18,10a2,2,0,0,0-.28.16l-.14.09-.13.08-.06,0,0,0a.32.32,0,0,1-.2.14l-.07,0a.55.55,0,0,1-.22-.18.13.13,0,0,1-.09,0,.21.21,0,0,1-.26,0s-.06,0-.08,0v-.06h0l-.06.05,0,.07-.06.2-.08.12c-.15.08-.15.08-.21.06v0c0,.07,0,.08,0,.09a.07.07,0,0,1,0,0H2l0-.05v-.1l.09-.1,0,0,0,0h0l0,0,0,.06,0-.18a.66.66,0,0,0,0-.11h0l.08-.26,0,0s0,0,0-.06l0-.07v0h0V9.67h0a2.21,2.21,0,0,1,0-.27s0-.08,0-.11l0,0s0,0-.05,0l-.1.21L2,9.74a4.19,4.19,0,0,0-.14.47c0,.06,0,.12-.06.12s-.05,0,0-.1a2.46,2.46,0,0,1,0-.54,2.7,2.7,0,0,1,0-.28c0-.09.05-.18.07-.27A2.15,2.15,0,0,1,2,8.87c0-.09.07-.17.11-.26a1.71,1.71,0,0,1,.13-.23l.06-.12.08-.1.12-.24.14-.22h0l.08-.11h0l-.09.07-.05,0c-.1.18-.21.35-.32.52l-.15.25L2,8.61l-.07.14L1.76,9l-.15.28s-.05.08-.07.07,0-.07,0-.12a5.18,5.18,0,0,1,.14-.53c0-.09.07-.18.1-.26l.12-.25A1.71,1.71,0,0,1,2,8c0-.08.09-.15.13-.22a2.67,2.67,0,0,1,.31-.35.79.79,0,0,1,.2-.27h0l-.07,0c0-.08.11-.1.17-.17H2.69a5.87,5.87,0,0,1,.82-1l0,0a2,2,0,0,1,.25-.5l-.14.15.11-.19a1.27,1.27,0,0,1,.13-.19,1.91,1.91,0,0,1,.93-.68A17.26,17.26,0,0,1,6.57,2.75a.09.09,0,0,1,.09,0s0,0,0,.07c-.43.43-.85.86-1.24,1.31.18-.17.37-.33.56-.49l.6-.49L6.7,3a.67.67,0,0,1,.16-.12c.26-.2.53-.38.8-.56l.83-.53L9.82,1A9,9,0,0,1,10.89.37a4.29,4.29,0,0,1,.63-.23A5.25,5.25,0,0,1,12.25,0h.19c.05,0,.09,0,.09.06s-.08.09-.21.11a5.2,5.2,0,0,0-.73.17,5.5,5.5,0,0,0-.65.26,10.24,10.24,0,0,0-1.1.59l-.51.29-.51.3c-.35.2-.72.4-1.09.63l-.46.31a0,0,0,0,1,0,0s0,0,0,.09a5.84,5.84,0,0,1,.53-.33,7.16,7.16,0,0,1,1.47-.9l.54-.2.54-.18A6.86,6.86,0,0,1,11.82.63a0,0,0,0,1,0,0s0,0,0,0a8.73,8.73,0,0,0-1,.47c.06,0,.11,0,.12.07a.17.17,0,0,1-.06.15l.22-.08c.05,0,.09,0,.09,0s0,.05-.06.06c-.31.11-.59.24-.88.37l-1,.54a.33.33,0,0,1,.15,0h0l.15-.08.66-.42c.23-.13.47-.26.72-.38a4.91,4.91,0,0,1,.79-.28A2.87,2.87,0,0,1,12.65,1s0,0,0,0,0,0,0,0a3.14,3.14,0,0,0-.53,0,4.05,4.05,0,0,0-.5.12h0s0,0,0,0l-.06,0a0,0,0,0,1,0,0A7.62,7.62,0,0,0,9.93,2a8,8,0,0,1,1.53-.65l.16-.09a0,0,0,0,1,.05,0s0,0,0,0l0,0c.1,0,.19,0,.2,0s-.07.11-.17.14c-.27.09-.53.2-.79.31l-.08,0L10.69,2a6.37,6.37,0,0,1,1.25-.37s.07,0,.08,0,0,0-.06,0a7.22,7.22,0,0,0-1,.46c-.33.17-.67.37-1,.56l-.57.56.09,0a9.79,9.79,0,0,0,1-.65,5.22,5.22,0,0,1,1-.6,0,0,0,0,1,0,0s0,0,0,0a7.06,7.06,0,0,0-1,.6c-.28.19-.54.37-.78.56.27-.15.53-.32.79-.48s.51-.32.77-.45a.1.1,0,0,1,.07,0h0A1.33,1.33,0,0,1,11.54,2a0,0,0,0,1,.05,0S11.59,2.05,11.58,2.06ZM2.9,8.51h0l0,0L3,8.43ZM2.83,9.58h0l-.06,0Zm3-5.75c-.26.24-.52.49-.79.71l.17-.2C5.38,4.17,5.58,4,5.8,3.83ZM2.38,9.08a1.2,1.2,0,0,1,.21-.19.82.82,0,0,1,.06-.19,2.56,2.56,0,0,1,.11-.24l.12-.23s0,0,0-.05l0-.06c-.09.16-.19.32-.28.49l-.12.23Zm-.21,1.3v0l0,0Zm.06.07v0S2.25,10.44,2.23,10.45Zm.09-.24,0,0Zm1.2.06-.18-.12.18.13Z"/><path class="cls-3" d="M5.17,10.87h0s0,0,0,0a.94.94,0,0,0,.15-.58.11.11,0,0,0,0-.12s-.08,0-.11.05l0,0-.12.1-.1.15,0-.06a.31.31,0,0,0,0,.1H5a.37.37,0,0,0-.07.37c0,.1.14.09.21,0Z"/><path class="cls-3" d="M5.42,10.73l-.13.16h0a.46.46,0,0,1,0-.26v0l0,0s-.05,0-.07,0l0,.05c-.07.1-.12.3-.05.38s.05,0,.07,0,.07,0,.09-.08,0-.11,0-.12l0,0v0a.23.23,0,0,1,0-.12v-.06H5.24v0h0v.19s0,.05,0,.08,0,0,0,0l0,0h0a2.39,2.39,0,0,1,.12-.22s0,0,0,0Z"/><path class="cls-3" d="M5.35,11a.05.05,0,0,0,0,0h0l0,0S5.36,11,5.35,11Z"/><path class="cls-3" d="M5.33,11.06h0Z"/><path class="cls-3" d="M7.2,8.43l.33-.16.32-.13h0s0,0,0,0l-.33.13-.32.16h0Z"/><path class="cls-3" d="M8.91,8.26s0,0,0,0h0Z"/><path class="cls-3" d="M9,8.65l-.06,0h0s0,0,0,0a2.49,2.49,0,0,1-.24.17,2.4,2.4,0,0,0-.27.16v0s0,0,0,0h0L8,9.2s0,0,0,0l-.15.16h0s0,0,0,0l0,0,.08,0h0l.07,0,.34-.22.18-.12.19-.13h0s0,0,0,0l-.19.22a2,2,0,0,1-.2.21l-.23.22-.21.22a2,2,0,0,0-.44.47,6.71,6.71,0,0,0-.48.67.12.12,0,0,1-.09.09.2.2,0,0,1-.13,0,.22.22,0,0,1-.13-.12v0l0,0a.12.12,0,0,1-.1,0h0c-.09,0-.17.05-.26.06l0,0h0a.19.19,0,0,1-.1,0H6L5.86,11l0,0a.15.15,0,0,1-.13,0s0,0,0,0v0h0l0,0v0l0,.06a.07.07,0,0,1,0,0c-.07,0-.07,0-.1,0h0l0,0h0l0,0h0v0l0,0h0l0,0,0,0s0,0,0-.06a.1.1,0,0,0,0,0h0l0-.09h0v0h0v0h0v-.1l0,0h0a1.54,1.54,0,0,0-.17.31,0,0,0,0,1,0,0s0,0,0,0a.94.94,0,0,1,.07-.4,1.18,1.18,0,0,1,.21-.32l.12-.15h0l0,0h0l0,0,0,0c-.08.11-.19.21-.27.33l-.15.19s0,0,0,0,0,0,0,0a1.05,1.05,0,0,1,.42-.62l.08-.08h0l.07,0h0A1.47,1.47,0,0,1,6,9.47H6a.81.81,0,0,1,.1-.18L6,9.33a.38.38,0,0,1,.09-.13A.52.52,0,0,1,6.48,9a6.15,6.15,0,0,1,.66-.57,0,0,0,0,1,0,0s0,0,0,0l-.46.42.44-.29.05,0,.06,0c.2-.13.4-.22.6-.33l.24-.13L8.32,8a2.69,2.69,0,0,1,.38-.19,1.68,1.68,0,0,1,.24-.06,1.27,1.27,0,0,1,.28,0s.1,0,.1,0,0,0-.08,0a1.89,1.89,0,0,0-.52.12c-.15.06-.28.13-.4.19s-.47.23-.74.36l-.17.09h0v0l.2-.09a2,2,0,0,1,.52-.27l.19,0,.19,0A1.87,1.87,0,0,1,9,8h0a0,0,0,0,1,0,0l-.37.15a.08.08,0,0,1,.05,0,.09.09,0,0,1,0,.06l.08,0h0a0,0,0,0,1,0,0l-.3.1-.33.16a.09.09,0,0,1,.05,0h0l0,0a2.39,2.39,0,0,1,.48-.24,1.22,1.22,0,0,1,.58-.09h0a.88.88,0,0,0-.36,0H9s0,0,0,0h0a2.36,2.36,0,0,0-.56.24,2.74,2.74,0,0,1,.53-.17l.05,0H9a0,0,0,0,1,0,0H9a.06.06,0,0,1,.07,0A.06.06,0,0,1,9,8.4c-.09,0-.18,0-.27.09h0l0,0a2,2,0,0,1,.42-.07,0,0,0,0,1,0,0v0a3.75,3.75,0,0,0-.69.29L8.2,9h0a2.33,2.33,0,0,0,.34-.2,1.23,1.23,0,0,1,.33-.19h0a2.07,2.07,0,0,0-.32.19A3.15,3.15,0,0,0,8.32,9a1.73,1.73,0,0,0,.27-.15l.26-.14h0a.15.15,0,0,1,.06,0H9S9,8.65,9,8.65ZM5.77,10.39h.06Zm0,.38ZM6.86,8.84a3.3,3.3,0,0,1-.3.22L6.62,9ZM5.53,10.55a.24.24,0,0,1,.1-.05l0-.07.1-.15s0,0,0,0v0l-.12.15Zm-.1.45h0l0,0Zm0,0h0Zm0-.08h0Zm.59.11L6,11l.08.05Z"/></g></g></svg>